<?xml version="1.0" standalone="no"?>
<!DOCTYPE svg PUBLIC "-//W3C//DTD SVG 1.1//EN" "http://www.w3.org/Graphics/SVG/1.1/DTD/svg11.dtd" >
<svg xmlns="http://www.w3.org/2000/svg" xmlns:xlink="http://www.w3.org/1999/xlink" version="1.1">
<metadata></metadata>
<defs>
<font id="gt_cinetyperegular" horiz-adv-x="1189" >
<font-face units-per-em="2048" ascent="1544" descent="-504" />
<missing-glyph horiz-adv-x="604" />
<glyph horiz-adv-x="0" />
<glyph unicode="&#xd;" horiz-adv-x="577" />
<glyph unicode=" "  horiz-adv-x="604" />
<glyph unicode="&#x09;" horiz-adv-x="604" />
<glyph unicode="&#xa0;" horiz-adv-x="604" />
<glyph unicode="!" horiz-adv-x="571" d="M164 0v252h244v-252h-244zM201 432v1024h170v-1024h-170z" />
<glyph unicode="&#x22;" horiz-adv-x="706" d="M102 918v538h170v-538h-170zM434 918v538h170v-538h-170z" />
<glyph unicode="#" horiz-adv-x="1572" d="M123 403v148h287l110 354h-274v148h319l131 426l144 -43l-119 -383h332l131 426l143 -43l-119 -383h242v-148h-287l-110 -354h274v-148h-319l-131 -426l-144 43l119 383h-332l-131 -426l-143 43l119 383h-242zM567 551h330l109 354h-330z" />
<glyph unicode="$" horiz-adv-x="1310" d="M170 195l135 104l33 -39l84 -61l141 -47h180l152 57l49 61l27 58v127l-35 77l-90 64l-428 123l-148 104l-67 109l-29 168l55 174l131 137l189 62h22v219h170v-219h7l217 -62l133 -82l-90 -145l-117 73l-168 48h-145l-125 -39l-74 -78l-31 -105l17 -90l28 -47l107 -74 l418 -118l157 -109l66 -158v-198l-51 -111l-99 -112l-223 -82h-27v-211h-170v211h-36l-195 67l-123 86z" />
<glyph unicode="%" horiz-adv-x="1814" d="M164 930v153l18 88l39 89l78 79l100 45h115l98 -45l78 -79l39 -89l19 -88v-153l-19 -88l-39 -90l-78 -82l-98 -43h-115l-100 43l-78 82l-39 90zM305 942l17 -65l18 -54l43 -39l51 -22h47l49 22l41 39l19 54l16 65v129l-14 62l-17 49l-47 43l-47 24h-47l-51 -24l-45 -43 l-19 -49l-14 -62v-129zM340 45l104 -76l1031 1442l-105 76zM1067 377v153l18 88l39 89l78 79l101 45h114l99 -45l77 -79l39 -89l19 -88v-153l-19 -88l-39 -90l-77 -82l-99 -43h-114l-101 43l-78 82l-39 90zM1208 389l17 -65l18 -54l43 -39l51 -22h47l50 22l41 39l18 54 l16 65v129l-14 62l-16 49l-47 43l-48 24h-47l-51 -24l-45 -43l-18 -49l-15 -62v-129z" />
<glyph unicode="&#x26;" horiz-adv-x="1347" d="M123 336v186l106 162l201 121l-127 147l-49 123v121l49 141l133 109l129 27h107l116 -27l138 -103l53 -137v-127l-57 -137l-119 -106l-121 -72l283 -334l10 19l35 176v69h170v-80l-45 -223l-52 -100l183 -211l-125 -111l-156 183l-92 -89l-100 -49l-129 -30h-189l-145 43 l-158 145zM293 358l26 -94l97 -90l84 -22h139l98 22l51 25l70 65l14 19l-333 393l-193 -117l-53 -86v-115zM424 1104l29 -72l120 -141l134 80l71 71l31 70v68l-25 59l-67 51l-60 15h-73l-78 -19l-62 -51l-20 -66v-65z" />
<glyph unicode="'" horiz-adv-x="374" d="M102 918v538h170v-538h-170z" />
<glyph unicode="(" horiz-adv-x="712" d="M123 459v317l72 367l104 252l133 190l137 -94l-120 -176l-91 -228l-65 -327v-285l65 -328l91 -227l120 -176l-137 -94l-133 190l-104 252z" />
<glyph unicode=")" horiz-adv-x="712" d="M143 -256l121 176l90 227l66 328v285l-66 327l-90 228l-121 176l138 94l133 -190l104 -252l72 -367v-317l-72 -367l-104 -252l-133 -190z" />
<glyph unicode="*" horiz-adv-x="1052" d="M143 1085l50 152l256 -86v272h159v-272l252 86l49 -152l-252 -86l158 -213l-127 -94l-160 215l-157 -215l-127 94l155 213z" />
<glyph unicode="+" horiz-adv-x="1187" d="M143 614v160h371v391h160v-391h370v-160h-370v-391h-160v391h-371z" />
<glyph unicode="," horiz-adv-x="571" d="M133 -215l115 215l-84 33v219h244v-227l-172 -299z" />
<glyph unicode="-" horiz-adv-x="983" d="M143 553v160h697v-160h-697z" />
<glyph unicode="." horiz-adv-x="571" d="M164 0v252h244v-252h-244z" />
<glyph unicode="/" horiz-adv-x="903" d="M143 25l457 1458l160 -51l-457 -1459z" />
<glyph unicode="0" horiz-adv-x="1316" d="M123 580v297l35 186l73 176l144 145l186 89h195l186 -89l143 -145l74 -176l35 -186v-297l-35 -187l-74 -176l-143 -145l-186 -88h-195l-186 88l-144 145l-73 176zM293 594l31 -158l49 -119l102 -108l119 -57h129l119 57l102 108l49 119l31 158v270l-29 150l-49 127 l-102 104l-123 60h-125l-123 -60l-102 -104l-49 -127l-29 -150v-270z" />
<glyph unicode="1" horiz-adv-x="808" d="M20 1202l502 254h92v-1456h-170v1231l-348 -180z" />
<glyph unicode="2" horiz-adv-x="1034" d="M72 1282l90 94l215 97h221l213 -105l135 -213v-197l-90 -184l-549 -606h656v-168h-887v152l637 714l63 127v113l-82 133l-137 66h-147l-146 -70l-71 -74z" />
<glyph unicode="3" horiz-adv-x="1107" d="M61 166l121 121l78 -78l139 -57h152l154 69l81 86l39 96v103l-37 90l-90 94l-178 72h-131v135l285 391h-514v168h739v-133l-303 -418l197 -74l143 -143l59 -158v-149l-59 -160l-133 -141l-217 -96h-217l-207 86z" />
<glyph unicode="4" horiz-adv-x="1128" d="M20 377v129l668 950h160v-911h219v-168h-219v-377h-170v377h-658zM238 545h440v608z" />
<glyph unicode="5" horiz-adv-x="1159" d="M102 166l121 121l78 -78l139 -57h152l153 69l82 88l39 97v118l-37 90l-94 97l-125 47h-186l-127 -43l-139 100l88 641h688v-168h-541l-61 -391l65 29h248l189 -74l143 -143l59 -158v-170l-59 -160l-133 -141l-217 -96h-217l-207 86z" />
<glyph unicode="6" horiz-adv-x="1187" d="M133 395v615l49 176l140 186l213 101h202l205 -97l90 -86l-121 -121l-67 66l-144 70h-129l-137 -66l-96 -127l-35 -131v-162l66 58l172 71h192l213 -106l101 -148l38 -141v-170l-41 -150l-102 -145l-209 -104h-239l-211 104l-107 154zM303 420l29 -105l69 -98l131 -65 h164l131 65l56 80l32 109v129l-26 90l-60 86l-133 69h-127l-137 -57l-96 -78l-33 -57v-168z" />
<glyph unicode="7" horiz-adv-x="956" d="M61 1288v168h865v-123l-592 -1333h-191l584 1288h-666z" />
<glyph unicode="8" horiz-adv-x="1193" d="M123 332v190l49 152l129 121l-90 77l-55 142v147l51 152l125 104l186 56h158l186 -56l125 -104l51 -152v-147l-55 -142l-90 -77l129 -121l49 -152v-190l-43 -150l-145 -141l-191 -57h-190l-191 57l-145 141zM293 360l22 -88l86 -82l123 -38h146l123 38l86 82l22 88v138 l-27 88l-83 86l-95 35h-198l-95 -35l-84 -86l-26 -88v-138zM326 1044l26 -79l64 -64l88 -31h186l88 31l64 64l26 79v91l-28 82l-64 55l-119 33h-120l-119 -33l-64 -55l-28 -82v-91z" />
<glyph unicode="9" horiz-adv-x="1187" d="M102 909v164l41 150l103 145l209 105h239l211 -105l107 -154l43 -153v-625l-49 -174l-140 -182l-213 -96h-202l-205 96l-90 86l120 121l68 -66l143 -69h129l138 61l96 123l35 129v178l-66 -57l-170 -72h-194l-213 107l-101 147zM272 928l27 -90l59 -86l134 -70h133 l137 57l94 78l29 57v162l-29 105l-70 98l-131 66h-163l-132 -66l-55 -80l-33 -108v-123z" />
<glyph unicode=":" horiz-adv-x="632" d="M195 0v252h243v-252h-243zM195 801v252h243v-252h-243z" />
<glyph unicode=";" horiz-adv-x="632" d="M164 -215l115 215l-84 33v219h243v-227l-172 -299zM195 801v252h243v-252h-243z" />
<glyph unicode="&#x3c;" horiz-adv-x="1024" d="M94 481v146l711 422l76 -129l-617 -367l617 -365l-76 -129z" />
<glyph unicode="=" horiz-adv-x="1187" d="M143 446v160h901v-160h-901zM143 782v160h901v-160h-901z" />
<glyph unicode="&#x3e;" horiz-adv-x="1024" d="M143 188l617 367l-617 365l76 129l711 -422v-146l-711 -422z" />
<glyph unicode="?" horiz-adv-x="997" d="M72 1110l22 127l43 94l121 96l154 46h163l168 -66l113 -109l39 -176l-27 -147l-57 -115l-166 -135l-88 -139v-154h-170v209l119 182l168 135l33 70l16 90l-23 92l-49 56l-106 39h-107l-102 -29l-62 -51l-18 -35l-18 -109zM350 0v252h244v-252h-244z" />
<glyph unicode="@" horiz-adv-x="1720" d="M102 383v227l76 224l154 210l200 138l220 75h262l219 -55l184 -125l142 -198l63 -238v-258l-104 -223l-154 -119h-119l-108 63l-54 80l-34 -43l-144 -69h-100l-107 32l-73 43l-88 127v99l22 98l117 115l151 43h101l104 -37l31 -23v111l-16 43l-60 43l-69 18h-115l-58 -18 l-57 -35l-26 -26l-97 98l43 41l78 49l96 29h144l118 -29l115 -78l43 -106v-447l58 -82h71l78 68l74 162v204l-51 203l-111 156l-150 102l-184 43h-209l-184 -63l-166 -115l-123 -168l-63 -188v-174l63 -189l123 -168l166 -114l184 -64h168l178 66l62 -127l-213 -78h-221 l-220 76l-200 137l-154 211zM676 319l45 -67l35 -19l65 -22h64l86 39l76 67l16 29v72l-25 22l-55 31l-74 21h-63l-98 -27l-64 -68l-8 -39v-39z" />
<glyph unicode="A" horiz-adv-x="1277" d="M41 0l530 1456h136l530 -1456h-180l-152 436h-532l-152 -436h-180zM432 604h414l-207 596z" />
<glyph unicode="B" horiz-adv-x="1308" d="M195 0v1456h608l188 -51l135 -148l43 -196l-41 -162l-65 -94l-62 -33l62 -39l88 -127l45 -198l-47 -199l-107 -129l-170 -80h-677zM365 168h464l101 45l61 72l31 123l-31 131l-51 86l-109 65h-466v-522zM365 858h475l102 70l29 41l24 92l-24 115l-72 79l-113 33h-421 v-430z" />
<glyph unicode="C" horiz-adv-x="1310" d="M113 578v301l39 180l90 182l141 137l215 95h225l213 -84l92 -72l80 -94l-121 -115l-71 80l-64 51l-153 66h-172l-146 -66l-98 -98l-70 -137l-30 -138v-274l30 -137l70 -136l96 -98l148 -69h172l155 65l64 51l69 80l121 -115l-80 -94l-92 -71l-213 -84h-225l-219 96 l-137 139l-90 182z" />
<glyph unicode="D" horiz-adv-x="1357" d="M195 0v1456h534l229 -90l142 -143l90 -181l45 -180v-268l-45 -180l-90 -181l-142 -143l-229 -90h-534zM365 168h331l168 70l94 96l68 133l39 147v228l-37 147l-70 133l-96 99l-164 67h-333v-1120z" />
<glyph unicode="E" d="M195 0v1456h913v-168h-743v-430h514v-168h-514v-522h743v-168h-913z" />
<glyph unicode="F" horiz-adv-x="1099" d="M195 0v1456h864v-168h-694v-430h493v-168h-493v-690h-170z" />
<glyph unicode="G" horiz-adv-x="1386" d="M123 578v301l39 180l90 182l141 137l215 95h226l213 -78l96 -74l80 -96l-125 -109l-68 82l-67 51l-158 56h-168l-145 -66l-99 -98l-69 -137l-31 -138v-274l31 -137l69 -136l96 -98l148 -69h172l117 51l96 84l68 108l14 74v100h-356v168h526v-276l-23 -121l-90 -152 l-139 -125l-184 -79h-230l-219 96l-137 139l-90 182z" />
<glyph unicode="H" horiz-adv-x="1390" d="M195 0v1456h170v-598h661v598h170v-1456h-170v690h-661v-690h-170z" />
<glyph unicode="I" horiz-adv-x="559" d="M195 0v1456h170v-1456h-170z" />
<glyph unicode="J" horiz-adv-x="1030" d="M41 367l164 45l31 -140l94 -94l71 -26h78l72 28l94 92l31 127v1057h170v-1079l-49 -193l-144 -145l-139 -55h-143l-140 55l-147 143z" />
<glyph unicode="K" horiz-adv-x="1361" d="M195 0v1456h170v-756l704 756h242l-563 -598l583 -858h-211l-491 737l-264 -278v-459h-170z" />
<glyph unicode="L" horiz-adv-x="1069" d="M195 0v1456h170v-1288h663v-168h-833z" />
<glyph unicode="M" horiz-adv-x="1720" d="M195 0v1456h167l498 -1094l498 1094h168v-1456h-170v1067l-410 -905h-172l-409 905v-1067h-170z" />
<glyph unicode="N" horiz-adv-x="1511" d="M195 0v1456h145l807 -1180v1180h170v-1456h-182l-770 1130v-1130h-170z" />
<glyph unicode="O" horiz-adv-x="1441" d="M123 578v301l39 180l90 182l141 137l215 95h226l215 -95l141 -137l90 -182l39 -180v-301l-39 -177l-90 -182l-137 -139l-219 -96h-226l-219 96l-137 139l-90 182zM293 590l31 -133l69 -138l96 -98l152 -69h164l147 69l97 98l69 136l31 137v274l-31 138l-69 137l-99 98 l-145 66h-168l-145 -66l-99 -98l-69 -137l-31 -140v-274z" />
<glyph unicode="P" horiz-adv-x="1253" d="M195 0v1456h606l190 -49l152 -152l59 -206l-55 -201l-100 -148l-189 -94h-493v-606h-170zM365 774h444l123 60l59 88l35 120l-35 123l-88 88l-121 35h-417v-514z" />
<glyph unicode="Q" horiz-adv-x="1441" d="M123 578v301l39 180l90 182l141 137l215 95h226l215 -95l141 -137l90 -182l39 -180v-301l-39 -177l-90 -182l-84 -84l98 -115l-127 -110l-112 133l-131 -59h-226l-219 96l-137 139l-90 182zM293 592l31 -137l69 -136l96 -98l148 -69h166l49 22l-137 160l127 108l155 -178 l52 55l69 138l31 133v274l-33 142l-67 135l-99 98l-145 66h-168l-145 -66l-99 -98l-69 -137l-31 -138v-274z" />
<glyph unicode="R" horiz-adv-x="1300" d="M195 0v1456h606l190 -49l152 -152l59 -206l-55 -201l-100 -148l-121 -63l282 -637h-188l-264 606h-391v-606h-170zM365 774h444l123 60l59 88l35 120l-35 123l-88 88l-121 35h-417v-514z" />
<glyph unicode="S" horiz-adv-x="1232" d="M109 195l122 118l39 -49l84 -57l185 -55h176l153 59l50 57l28 60v123l-47 94l-96 55l-418 115l-154 108l-67 109l-29 168l55 174l132 137l188 62h215l238 -62l133 -82l-92 -143l-117 69l-185 50h-161l-123 -39l-76 -76l-31 -107l19 -90l26 -45l105 -76l432 -118l158 -109 l65 -158v-198l-51 -111l-98 -112l-224 -82h-241l-223 67l-123 86z" />
<glyph unicode="T" horiz-adv-x="1054" d="M51 1288v168h953v-168h-396v-1288h-170v1288h-387z" />
<glyph unicode="U" horiz-adv-x="1452" d="M184 416v1040h170v-1018l27 -92l98 -129l183 -65h129l182 65l98 129l27 92v1018h170v-1040l-45 -146l-144 -190l-262 -96h-182l-262 96l-144 190z" />
<glyph unicode="V" horiz-adv-x="1302" d="M20 1456h181l450 -1198l451 1198h180l-551 -1456h-160z" />
<glyph unicode="W" horiz-adv-x="1781" d="M31 1456h174l287 -1153l335 1094h127l336 -1094l287 1153h174l-373 -1456h-161l-326 1053l-326 -1053h-162z" />
<glyph unicode="X" horiz-adv-x="1343" d="M31 1456h209l432 -592l432 592h209l-537 -731l533 -725h-209l-428 590l-428 -590h-209l532 725z" />
<glyph unicode="Y" horiz-adv-x="1159" d="M20 1456h201l359 -551l358 551h201l-475 -723v-733h-168v733z" />
<glyph unicode="Z" horiz-adv-x="1142" d="M61 0v131l779 1157h-738v168h961v-131l-776 -1157h794v-168h-1020z" />
<glyph unicode="[" horiz-adv-x="708" d="M123 -414v2013h442v-163h-274v-1686h274v-164h-442z" />
<glyph unicode="\" horiz-adv-x="903" d="M143 1432l160 51l457 -1458l-160 -52z" />
<glyph unicode="]" horiz-adv-x="708" d="M143 -250h275v1686h-275v163h443v-2013h-443v164z" />
<glyph unicode="^" horiz-adv-x="1105" d="M61 711l404 833h176l403 -833l-153 -74l-338 733l-338 -733z" />
<glyph unicode="_" horiz-adv-x="1187" d="M102 -92h983v-148h-983v148z" />
<glyph unicode="`" horiz-adv-x="1228" d="M81 1425l88 125l367 -260l-88 -125z" />
<glyph unicode="a" horiz-adv-x="1157" d="M113 250v119l28 139l152 151l203 52h131l137 -45l49 -35v155l-22 62l-86 55l-101 25h-145l-88 -29l-64 -41l-39 -39l-116 121l57 53l98 64l131 39h191l147 -37l152 -103l55 -139v-620l80 -115l-137 -98l-99 147l-47 -53l-188 -94h-127l-139 43l-99 57zM283 299l63 -90 l47 -29l96 -28h66l154 57l84 88l20 63v76l-43 45l-63 33l-101 29h-92l-135 -37l-80 -80l-16 -72v-55z" />
<glyph unicode="b" horiz-adv-x="1216" d="M184 0v1544h170v-573l45 47l125 78h185l213 -99l139 -188l43 -145v-244l-43 -150l-139 -188l-205 -98h-182l-123 45l-58 37v-66h-170zM354 281l43 -54l78 -51l84 -26h131l121 65l98 131l25 96v199l-25 92l-98 133l-129 62h-135l-133 -94l-60 -89v-464z" />
<glyph unicode="c" horiz-adv-x="1050" d="M113 416v243l43 150l139 188l205 99h174l160 -52l135 -135l-121 -112l-103 102l-92 29h-127l-123 -64l-96 -131l-24 -96v-197l26 -94l99 -133l124 -61h121l88 30l107 101l119 -117l-133 -131l-160 -51h-174l-205 98l-139 188z" />
<glyph unicode="d" horiz-adv-x="1216" d="M113 416v243l43 150l139 188l205 99h182l123 -45l57 -37v530h170v-1544h-168v109l-45 -48l-127 -77h-184l-213 98l-139 188zM283 438l24 -92l99 -133l129 -61h135l133 94l59 88v465l-43 53l-78 51l-84 27h-131l-120 -66l-99 -131l-24 -96v-199z" />
<glyph unicode="e" horiz-adv-x="1175" d="M113 416v243l43 150l139 188l205 99h182l207 -99l137 -188l47 -137v-215h-790v-21l26 -90l99 -133l124 -61h123l140 34l106 68l90 -135l-133 -88l-188 -47h-170l-205 98l-139 188zM283 625h620v26l-26 78l-99 133l-125 66h-127l-123 -64l-96 -131l-24 -90v-18z" />
<glyph unicode="f" horiz-adv-x="825" d="M51 885v168h195v286l112 168l172 54h82l183 -41l-43 -166l-152 39h-55l-78 -27l-51 -76v-237h274v-168h-274v-885h-170v885h-195z" />
<glyph unicode="g" horiz-adv-x="1216" d="M113 465v194l43 150l139 188l205 99h182l123 -45l57 -37v65h170v-1118l-51 -149l-156 -105l-151 -51h-180l-146 39l-100 65l-58 56l119 121l51 -52l52 -35l98 -26h145l95 35l88 59l24 62v188l-43 -41l-127 -78h-184l-209 82l-143 188zM283 487l24 -88l94 -129l134 -53 h135l133 94l59 97v391l-43 53l-78 51l-84 27h-131l-120 -66l-99 -131l-24 -96v-150z" />
<glyph unicode="h" d="M184 0v1544h170v-567l49 41l138 78h188l172 -49l125 -168v-879h-170v813l-51 80l-111 35h-131l-143 -94l-66 -97v-737h-170z" />
<glyph unicode="i" horiz-adv-x="538" d="M147 1292v252h246v-252h-246zM184 0v1079h170v-1079h-170z" />
<glyph unicode="j" horiz-adv-x="559" d="M-102 -303l43 162l79 -21h56l80 27l49 80v1134h170v-1185l-105 -166l-172 -60h-90zM157 1292v252h246v-252h-246z" />
<glyph unicode="k" horiz-adv-x="1130" d="M184 0v1544h170v-921l457 456h238l-443 -432l463 -647h-207l-373 530l-135 -131v-399h-170z" />
<glyph unicode="l" horiz-adv-x="538" d="M184 0v1544h170v-1544h-170z" />
<glyph unicode="m" horiz-adv-x="1849" d="M184 0v1079h170v-106l52 45l135 78h188l166 -49l78 -107l90 78l143 78h189l166 -49l125 -168v-879h-170v813l-52 80l-104 35h-131l-144 -94l-65 -97v-737h-170v805l-51 84l-105 39h-131l-147 -94l-62 -89v-745h-170z" />
<glyph unicode="n" horiz-adv-x="1200" d="M184 0v1079h170v-106l52 45l135 78h188l182 -49l125 -168v-879h-170v813l-51 80l-121 35h-131l-147 -94l-62 -89v-745h-170z" />
<glyph unicode="o" horiz-adv-x="1142" d="M113 418v241l41 185l102 151l207 101h217l207 -101l102 -151l41 -185v-241l-41 -185l-102 -151l-207 -98h-217l-207 98l-102 151zM283 438l26 -137l62 -92l121 -59h159l121 59l62 92l26 137v205l-26 133l-64 90l-119 62h-159l-123 -62l-60 -90l-26 -133v-205z" />
<glyph unicode="p" horiz-adv-x="1216" d="M184 -332v1411h168v-108l45 47l127 78h185l213 -99l139 -188l43 -145v-244l-43 -150l-139 -188l-205 -98h-182l-123 45l-58 37v-398h-170zM354 281l43 -54l78 -51l84 -26h131l121 65l98 131l25 96v199l-25 92l-98 133l-129 62h-135l-133 -94l-60 -89v-464z" />
<glyph unicode="q" horiz-adv-x="1216" d="M113 416v243l43 150l139 188l205 99h182l123 -45l57 -37v65h170v-1411h-170v441l-45 -48l-125 -77h-184l-213 98l-139 188zM283 438l24 -92l99 -133l129 -61h135l133 94l59 88v465l-43 53l-78 51l-84 27h-131l-120 -66l-99 -131l-24 -96v-199z" />
<glyph unicode="r" horiz-adv-x="827" d="M174 0v1079h170v-125l78 76l139 66h133l103 -29l-41 -162l-82 23h-88l-113 -54l-84 -94l-45 -98v-682h-170z" />
<glyph unicode="s" horiz-adv-x="1019" d="M102 158l119 114l39 -47l55 -43l127 -32h138l86 24l51 37l33 51v78l-35 59l-62 43l-295 60l-131 69l-86 119v182l68 117l92 72l127 35h174l168 -45l123 -84l-92 -138l-99 68l-114 35h-137l-78 -23l-35 -28l-29 -50v-90l41 -55l58 -29l313 -61l117 -78l80 -131v-174 l-78 -119l-99 -69l-139 -41h-182l-174 45l-96 75z" />
<glyph unicode="t" horiz-adv-x="847" d="M51 885v168h195v377h170v-377h282v-168h-282v-631l51 -74l74 -28h57l145 36l43 -161l-190 -43h-94l-144 53l-112 162v686h-195z" />
<glyph unicode="u" d="M164 205v874h170v-813l59 -86l117 -30h117l145 96l64 88v745h170v-1079h-168v109l-54 -48l-135 -77h-166l-186 49z" />
<glyph unicode="v" horiz-adv-x="1093" d="M41 1079h180l326 -835l325 835h181l-428 -1079h-156z" />
<glyph unicode="w" horiz-adv-x="1572" d="M51 1079h178l222 -796l266 755h139l266 -755l221 796h179l-314 -1079h-159l-263 754l-262 -754h-159z" />
<glyph unicode="x" horiz-adv-x="1130" d="M51 0l410 541l-406 538h213l297 -401l297 401h213l-405 -538l409 -541h-215l-299 406l-299 -406h-215z" />
<glyph unicode="y" horiz-adv-x="1130" d="M51 1079h193l323 -735l324 735h188l-637 -1411h-182l215 475z" />
<glyph unicode="z" horiz-adv-x="1030" d="M102 0v135l588 778h-557v166h785v-135l-584 -776h594v-168h-826z" />
<glyph unicode="{" horiz-adv-x="845" d="M82 590v74l199 202v543l65 125l121 65h256v-163h-201l-49 -29l-24 -53v-547l-177 -176l177 -176v-623l24 -53l49 -29h201v-164h-256l-121 66l-65 125v610z" />
<glyph unicode="|" horiz-adv-x="641" d="M246 -373v1958h149v-1958h-149z" />
<glyph unicode="}" horiz-adv-x="845" d="M123 -250h201l49 29l24 53v623l176 176l-176 176v547l-24 53l-49 29h-201v163h256l121 -65l65 -125v-543l199 -202v-74l-199 -203v-610l-65 -125l-121 -66h-256v164z" />
<glyph unicode="~" horiz-adv-x="1361" d="M143 741l129 68l138 35h88l133 -21l137 -47l86 -20h82l88 22l113 60l82 -148l-127 -67l-142 -35h-106l-127 28l-129 43l-103 17h-53l-106 -27l-105 -55z" />
<glyph unicode="&#xa1;" horiz-adv-x="571" d="M164 827v252h244v-252h-244zM201 -377v1024h170v-1024h-170z" />
<glyph unicode="&#xa2;" horiz-adv-x="1310" d="M227 416v243l45 154l134 184l204 99h27v211h170v-211h24l160 -52l133 -135l-123 -116l-104 106l-92 29h-168l-115 -62l-94 -127l-31 -102v-197l33 -102l92 -127l129 -59h156l90 28l104 107l121 -121l-131 -131l-160 -51h-24v-203h-170v203h-27l-204 98l-134 184z" />
<glyph unicode="&#xa3;" horiz-adv-x="1310" d="M219 655v148h174l-41 106l-28 176l34 197l129 131l181 60h198l162 -99l96 -135l-141 -94l-76 106l-88 54h-129l-110 -39l-64 -66l-20 -117l22 -133l55 -147h383v-148h-327l45 -118v-195l-70 -129l117 -61h149l142 28l108 53l78 -151l-137 -66l-176 -32h-207l-191 104 l-104 -74l-111 -26l-36 159l83 23l115 82l70 133v121l-55 149h-230z" />
<glyph unicode="&#xa4;" horiz-adv-x="1310" d="M109 305l149 150l-59 80l-43 139v119l43 139l59 80l-149 149l118 119l150 -150l74 54l145 45h119l145 -45l74 -54l149 150l119 -119l-149 -149l59 -80l43 -139v-119l-43 -139l-59 -80l149 -150l-119 -119l-149 150l-74 -53l-145 -45h-119l-145 45l-74 53l-150 -150z M326 694l30 -100l76 -96l90 -62l101 -30h65l100 30l91 62l75 96l31 100v78l-31 100l-75 97l-91 61l-100 31h-65l-101 -31l-90 -61l-76 -97l-30 -100v-78z" />
<glyph unicode="&#xa5;" horiz-adv-x="1310" d="M96 1456h201l358 -551l359 551h200l-340 -518h211v-139h-303l-43 -66v-74h346v-139h-346v-520h-168v520h-346v139h346v74l-43 66h-303v139h211z" />
<glyph unicode="&#xa6;" horiz-adv-x="641" d="M246 -373v799h149v-799h-149zM246 786v799h149v-799h-149z" />
<glyph unicode="&#xa7;" horiz-adv-x="1124" d="M123 659v134l59 104l62 47l-49 172l51 160l125 135l168 62h118l174 -56l132 -108l-101 -123l-110 92l-119 37h-66l-104 -37l-74 -84l-31 -86l23 -74l477 -344l117 -115l47 -133v-186l-51 -100l-49 -47l26 -138l-53 -133l-121 -139l-168 -61h-139l-174 55l-131 108 l100 123l111 -92l119 -37h86l104 37l72 72l30 80l-16 67l-492 365l-112 121zM283 684l22 -66l78 -83l424 -314l31 21l24 53v123l-24 69l-84 80l-379 277l-74 -51l-18 -33v-76z" />
<glyph unicode="&#xa8;" horiz-adv-x="1228" d="M82 1237v236h225v-236h-225zM543 1237v236h225v-236h-225z" />
<glyph unicode="&#xa9;" horiz-adv-x="1724" d="M102 614v228l76 223l154 211l200 137l220 76h221l219 -76l201 -137l153 -211l76 -223v-228l-76 -223l-153 -211l-201 -137l-219 -76h-221l-220 76l-200 137l-154 211zM242 641l63 -188l123 -168l166 -115l184 -64h168l184 64l166 115l123 168l64 188v174l-64 189 l-123 167l-166 115l-184 64h-168l-184 -64l-166 -115l-123 -167l-63 -189v-174zM537 643v170l22 102l51 105l80 80l121 53h129l119 -49l55 -39l43 -55l-108 -105l-37 49l-27 23l-74 29h-71l-62 -29l-45 -47l-28 -60l-19 -69v-146l19 -69l28 -60l45 -47l62 -28h71l74 28 l27 23l37 49l108 -105l-43 -55l-55 -39l-119 -49h-129l-123 53l-78 82l-51 105z" />
<glyph unicode="&#xaa;" horiz-adv-x="798" d="M102 850v74l25 90l96 94l123 31h78l82 -29l12 -6v78l-10 22l-35 25l-53 14h-72l-67 -14l-25 -15l-33 -26l-88 84l37 41l57 30l111 27h90l84 -20l100 -66l33 -86v-375l49 -71l-104 -74l-57 84l-15 -17l-112 -57h-86l-86 27l-68 35zM231 885l23 -37l20 -14l64 -19h41l92 45 l47 49v49l-43 31l-72 23h-45l-67 -19l-47 -45l-13 -39v-24z" />
<glyph unicode="&#xab;" horiz-adv-x="1101" d="M92 584v106l299 406l131 -107l-260 -352l260 -352l-131 -107zM528 584v106l299 406l131 -107l-260 -352l260 -352l-131 -107z" />
<glyph unicode="&#xac;" horiz-adv-x="1228" d="M143 614v160h901v-614h-159v454h-742z" />
<glyph unicode="&#xad;" horiz-adv-x="983" d="M143 553v160h697v-160h-697z" />
<glyph unicode="&#xae;" horiz-adv-x="1724" d="M102 614v228l76 223l154 211l200 137l220 76h221l219 -76l201 -137l153 -211l76 -223v-228l-76 -223l-153 -211l-201 -137l-219 -76h-221l-220 76l-200 137l-154 211zM242 641l63 -188l123 -168l166 -115l184 -64h168l184 64l166 115l123 168l64 188v174l-64 189 l-123 167l-166 115l-184 64h-168l-184 -64l-166 -115l-123 -167l-63 -189v-174zM610 307v842h351l110 -27l88 -90l33 -123l-31 -121l-57 -83l-72 -37l164 -361h-166l-151 338h-119v-338h-150zM760 793h196l48 28l18 29l14 57l-14 45l-31 35l-45 14h-186v-208z" />
<glyph unicode="&#xaf;" horiz-adv-x="1228" d="M97 1233v158h684v-158h-684z" />
<glyph unicode="&#xb0;" horiz-adv-x="929" d="M143 1116v68l15 57l28 68l39 55l84 68l68 28l53 13h70l53 -13l68 -28l84 -68l38 -55l29 -68l14 -57v-68l-14 -57l-29 -68l-38 -55l-84 -68l-68 -28l-53 -13h-70l-53 13l-68 28l-84 68l-39 55l-28 68zM283 1128l8 -36l16 -35l27 -33l49 -39l35 -14l31 -6h32l31 6l35 14 l49 39l27 33l16 35l8 36v43l-8 37l-16 35l-27 33l-49 39l-35 14l-31 6h-32l-31 -6l-35 -14l-49 -39l-27 -33l-16 -35l-8 -37v-43z" />
<glyph unicode="&#xb1;" horiz-adv-x="1187" d="M143 0v160h901v-160h-901zM143 614v160h371v371h160v-371h370v-160h-370v-329h-160v329h-371z" />
<glyph unicode="&#xb2;" horiz-adv-x="686" d="M102 1575l72 74l117 49h125l121 -58l77 -116v-113l-49 -96l-227 -225h287v-140h-508v115l325 319l29 58v39l-35 53l-53 25h-64l-57 -25l-57 -59z" />
<glyph unicode="&#xb3;" horiz-adv-x="690" d="M61 1057l103 100l57 -57l53 -25h62l63 27l31 33l16 39v34l-12 31l-39 39l-76 27h-86v100l113 147h-225v136h420v-97l-131 -176l69 -26l74 -72l35 -86v-76l-35 -94l-68 -70l-118 -51h-119l-113 43z" />
<glyph unicode="&#xb4;" horiz-adv-x="1228" d="M81 1290l367 260l88 -125l-367 -260z" />
<glyph unicode="&#xb5;" horiz-adv-x="1198" d="M188 -332v1411h170v-813l60 -86l117 -30h116l146 96l63 88v745h170v-1079h-168v109l-53 -48l-135 -77h-166l-150 43v-359h-170z" />
<glyph unicode="&#xb6;" horiz-adv-x="1187" d="M35 989v135l47 131l127 146l151 55h752v-147h-174v-1641h-150v1641h-210v-1641h-150v989h-68l-151 56l-127 145zM184 1010l29 -76l86 -98l90 -31h39v504h-41l-90 -31l-82 -98l-31 -78v-92z" />
<glyph unicode="&#xb7;" horiz-adv-x="571" d="M164 569v252h244v-252h-244z" />
<glyph unicode="&#xb8;" horiz-adv-x="1228" d="M82 -336l51 109l45 -17h60l34 19l17 47l-158 35l62 176l108 -29l-20 -76l102 -16l45 -107l-59 -122l-125 -54h-90z" />
<glyph unicode="&#xb9;" horiz-adv-x="493" d="M20 1546l297 142h74v-738h-145v555l-164 -75z" />
<glyph unicode="&#xba;" horiz-adv-x="770" d="M102 954v150l25 108l68 99l120 59h140l120 -59l68 -99l25 -108v-150l-25 -108l-65 -101l-123 -57h-140l-122 57l-66 101zM231 969l17 -78l33 -47l61 -29h88l59 29l33 47l17 74v122l-13 66l-39 59l-63 31h-80l-61 -31l-37 -53l-15 -72v-118z" />
<glyph unicode="&#xbb;" horiz-adv-x="1101" d="M143 285l260 352l-260 352l131 107l299 -406v-106l-299 -406zM580 285l260 352l-260 352l131 107l299 -406v-106l-299 -406z" />
<glyph unicode="&#xbc;" horiz-adv-x="1472" d="M20 1325l297 142h74v-738h-145v555l-164 -75zM84 45l1031 1442l104 -76l-1030 -1442zM850 178v97l336 463h121v-426h104v-134h-104v-178h-142v178h-315zM1045 312h120v172z" />
<glyph unicode="&#xbd;" horiz-adv-x="1495" d="M20 1325l297 142h74v-738h-145v555l-164 -75zM84 45l1031 1442l104 -76l-1030 -1442zM911 625l72 74l117 49h125l121 -58l77 -116v-113l-49 -96l-227 -225h287v-140h-508v115l325 319l29 58v39l-35 53l-53 25h-64l-57 -25l-57 -59z" />
<glyph unicode="&#xbe;" horiz-adv-x="1669" d="M61 826l103 100l57 -57l53 -25h62l63 27l31 33l16 39v34l-12 31l-39 39l-76 27h-86v100l113 147h-225v136h420v-97l-131 -176l69 -26l74 -72l35 -86v-76l-35 -94l-68 -70l-118 -51h-119l-113 43zM280 45l1031 1442l104 -76l-1030 -1442zM1047 178v97l336 463h121v-426 h104v-134h-104v-178h-142v178h-315zM1242 312h120v172z" />
<glyph unicode="&#xbf;" horiz-adv-x="1150" d="M164 -43l26 147l58 115l166 135l88 140v153h170v-209l-119 -182l-168 -135l-33 -70l-16 -90l22 -92l50 -55l106 -39h107l102 28l61 52l19 34l18 109l166 -29l-22 -127l-43 -94l-121 -96l-154 -45h-164l-168 65l-112 109zM465 827v252h244v-252h-244z" />
<glyph unicode="&#xc0;" horiz-adv-x="1277" d="M41 0l530 1456h136l530 -1456h-180l-152 436h-532l-152 -436h-180zM403 1747l74 133l397 -219l-74 -133zM432 604h414l-207 596z" />
<glyph unicode="&#xc1;" horiz-adv-x="1277" d="M41 0l530 1456h136l530 -1456h-180l-152 436h-532l-152 -436h-180zM403 1661l397 219l74 -133l-397 -219zM432 604h414l-207 596z" />
<glyph unicode="&#xc2;" horiz-adv-x="1277" d="M41 0l530 1456h136l530 -1456h-180l-152 436h-532l-152 -436h-180zM280 1640l305 246h107l305 -246l-96 -116l-262 215l-262 -215zM432 604h414l-207 596z" />
<glyph unicode="&#xc3;" horiz-adv-x="1277" d="M41 0l530 1456h136l530 -1456h-180l-152 436h-532l-152 -436h-180zM262 1589l21 66l31 53l51 37l102 47h86l90 -37l80 -47l25 -10h35l49 22l37 31l12 41l133 -45l-20 -66l-31 -53l-51 -39l-105 -45h-76l-79 31l-91 55l-32 10h-35l-51 -18l-35 -37l-12 -41zM432 604h414 l-207 596z" />
<glyph unicode="&#xc4;" horiz-adv-x="1277" d="M41 0l530 1456h136l530 -1456h-180l-152 436h-532l-152 -436h-180zM299 1548v224h217v-224h-217zM432 604h414l-207 596zM760 1548v224h217v-224h-217z" />
<glyph unicode="&#xc5;" horiz-adv-x="1277" d="M41 0l530 1456h136l530 -1456h-180l-152 436h-532l-152 -436h-180zM418 1708v78l24 72l74 81l84 31h76l84 -31l71 -81l27 -72v-78l-27 -72l-71 -82l-84 -30h-76l-84 30l-74 82zM432 604h414l-207 596zM522 1724l15 -43l34 -36l45 -17h43l45 17l35 36l15 43v45l-15 43 l-35 37l-45 17h-43l-45 -17l-34 -37l-15 -43v-45z" />
<glyph unicode="&#xc6;" horiz-adv-x="1710" d="M31 0l706 1456h891v-168h-631v-430h402v-168h-402v-522h631v-168h-801v438h-405l-207 -438h-184zM500 606h327v686z" />
<glyph unicode="&#xc7;" horiz-adv-x="1310" d="M113 578v301l39 180l90 182l141 137l215 95h225l213 -84l92 -72l80 -94l-121 -115l-71 80l-64 51l-153 66h-172l-146 -66l-98 -98l-70 -137l-30 -138v-274l30 -137l70 -136l96 -98l148 -69h172l155 65l64 51l69 80l121 -115l-80 -94l-92 -71l-213 -84h-129l-14 -56 l102 -16l45 -107l-59 -122l-125 -54h-90l-72 35l51 109l46 -17h59l35 19l16 47l-158 35l48 135l-199 88l-137 139l-90 182z" />
<glyph unicode="&#xc8;" d="M195 0v1456h913v-168h-743v-430h514v-168h-514v-522h743v-168h-913zM428 1747l74 133l397 -219l-74 -133z" />
<glyph unicode="&#xc9;" d="M195 0v1456h913v-168h-743v-430h514v-168h-514v-522h743v-168h-913zM428 1661l397 219l74 -133l-397 -219z" />
<glyph unicode="&#xca;" d="M195 0v1456h913v-168h-743v-430h514v-168h-514v-522h743v-168h-913zM305 1640l305 246h107l305 -246l-96 -116l-262 215l-262 -215z" />
<glyph unicode="&#xcb;" d="M195 0v1456h913v-168h-743v-430h514v-168h-514v-522h743v-168h-913zM323 1548v224h217v-224h-217zM784 1548v224h217v-224h-217z" />
<glyph unicode="&#xcc;" horiz-adv-x="559" d="M45 1747l74 133l397 -219l-74 -133zM195 0v1456h170v-1456h-170z" />
<glyph unicode="&#xcd;" horiz-adv-x="559" d="M45 1661l397 219l74 -133l-397 -219zM195 0v1456h170v-1456h-170z" />
<glyph unicode="&#xce;" horiz-adv-x="559" d="M-78 1640l305 246h107l305 -246l-96 -116l-262 215l-262 -215zM195 0v1456h170v-1456h-170z" />
<glyph unicode="&#xcf;" horiz-adv-x="559" d="M-60 1548v224h217v-224h-217zM195 0v1456h170v-1456h-170zM401 1548v224h217v-224h-217z" />
<glyph unicode="&#xd0;" horiz-adv-x="1357" d="M47 664v149h148v643h534l229 -90l142 -143l90 -181l45 -180v-268l-45 -180l-90 -181l-142 -143l-229 -90h-534v664h-148zM365 168h331l168 70l94 96l68 133l39 147v228l-37 147l-70 133l-96 99l-164 67h-333v-475h344v-149h-344v-496z" />
<glyph unicode="&#xd1;" horiz-adv-x="1511" d="M195 0v1456h145l807 -1180v1180h170v-1456h-182l-770 1130v-1130h-170zM378 1589l21 66l31 53l51 37l102 47h86l90 -37l80 -47l25 -10h35l49 22l37 31l12 41l133 -45l-20 -66l-31 -53l-51 -39l-105 -45h-76l-79 31l-91 55l-32 10h-35l-51 -18l-35 -37l-12 -41z" />
<glyph unicode="&#xd2;" horiz-adv-x="1441" d="M123 578v301l39 180l90 182l141 137l215 95h226l215 -95l141 -137l90 -182l39 -180v-301l-39 -177l-90 -182l-137 -139l-219 -96h-226l-219 96l-137 139l-90 182zM293 590l31 -133l69 -138l96 -98l152 -69h164l147 69l97 98l69 136l31 137v274l-31 138l-69 137l-99 98 l-145 66h-168l-145 -66l-99 -98l-69 -137l-31 -140v-274zM485 1747l74 133l397 -219l-74 -133z" />
<glyph unicode="&#xd3;" horiz-adv-x="1441" d="M123 578v301l39 180l90 182l141 137l215 95h226l215 -95l141 -137l90 -182l39 -180v-301l-39 -177l-90 -182l-137 -139l-219 -96h-226l-219 96l-137 139l-90 182zM293 590l31 -133l69 -138l96 -98l152 -69h164l147 69l97 98l69 136l31 137v274l-31 138l-69 137l-99 98 l-145 66h-168l-145 -66l-99 -98l-69 -137l-31 -140v-274zM485 1661l397 219l74 -133l-397 -219z" />
<glyph unicode="&#xd4;" horiz-adv-x="1441" d="M123 578v301l39 180l90 182l141 137l215 95h226l215 -95l141 -137l90 -182l39 -180v-301l-39 -177l-90 -182l-137 -139l-219 -96h-226l-219 96l-137 139l-90 182zM293 590l31 -133l69 -138l96 -98l152 -69h164l147 69l97 98l69 136l31 137v274l-31 138l-69 137l-99 98 l-145 66h-168l-145 -66l-99 -98l-69 -137l-31 -140v-274zM362 1640l305 246h107l305 -246l-96 -116l-262 215l-262 -215z" />
<glyph unicode="&#xd5;" horiz-adv-x="1441" d="M123 578v301l39 180l90 182l141 137l215 95h226l215 -95l141 -137l90 -182l39 -180v-301l-39 -177l-90 -182l-137 -139l-219 -96h-226l-219 96l-137 139l-90 182zM293 590l31 -133l69 -138l96 -98l152 -69h164l147 69l97 98l69 136l31 137v274l-31 138l-69 137l-99 98 l-145 66h-168l-145 -66l-99 -98l-69 -137l-31 -140v-274zM344 1589l21 66l31 53l51 37l102 47h86l90 -37l80 -47l25 -10h35l49 22l37 31l12 41l133 -45l-20 -66l-31 -53l-51 -39l-105 -45h-76l-79 31l-91 55l-32 10h-35l-51 -18l-35 -37l-12 -41z" />
<glyph unicode="&#xd6;" horiz-adv-x="1441" d="M123 578v301l39 180l90 182l141 137l215 95h226l215 -95l141 -137l90 -182l39 -180v-301l-39 -177l-90 -182l-137 -139l-219 -96h-226l-219 96l-137 139l-90 182zM293 590l31 -133l69 -138l96 -98l152 -69h164l147 69l97 98l69 136l31 137v274l-31 138l-69 137l-99 98 l-145 66h-168l-145 -66l-99 -98l-69 -137l-31 -140v-274zM381 1548v224h217v-224h-217zM842 1548v224h217v-224h-217z" />
<glyph unicode="&#xd7;" horiz-adv-x="1187" d="M154 367l327 327l-327 328l112 113l328 -328l328 328l112 -113l-327 -328l327 -327l-112 -113l-328 328l-328 -328z" />
<glyph unicode="&#xd8;" horiz-adv-x="1441" d="M123 578v301l39 180l90 182l141 137l215 95h226l206 -91l125 195l119 -78l-137 -215l43 -43l90 -182l39 -180v-301l-39 -177l-90 -182l-137 -139l-219 -96h-226l-219 96l-8 8l-133 -209l-119 78l150 236l-27 26l-90 182zM293 590l31 -133l55 -109l571 891l-145 66h-168 l-145 -66l-99 -98l-69 -137l-31 -140v-274zM475 236l14 -15l152 -69h164l147 69l97 98l69 136l31 137v274l-31 138l-67 131z" />
<glyph unicode="&#xd9;" horiz-adv-x="1452" d="M184 416v1040h170v-1018l27 -92l98 -129l183 -65h129l182 65l98 129l27 92v1018h170v-1040l-45 -146l-144 -190l-262 -96h-182l-262 96l-144 190zM491 1747l74 133l397 -219l-74 -133z" />
<glyph unicode="&#xda;" horiz-adv-x="1452" d="M184 416v1040h170v-1018l27 -92l98 -129l183 -65h129l182 65l98 129l27 92v1018h170v-1040l-45 -146l-144 -190l-262 -96h-182l-262 96l-144 190zM491 1661l397 219l74 -133l-397 -219z" />
<glyph unicode="&#xdb;" horiz-adv-x="1452" d="M184 416v1040h170v-1018l27 -92l98 -129l183 -65h129l182 65l98 129l27 92v1018h170v-1040l-45 -146l-144 -190l-262 -96h-182l-262 96l-144 190zM368 1640l305 246h107l305 -246l-96 -116l-262 215l-262 -215z" />
<glyph unicode="&#xdc;" horiz-adv-x="1452" d="M184 416v1040h170v-1018l27 -92l98 -129l183 -65h129l182 65l98 129l27 92v1018h170v-1040l-45 -146l-144 -190l-262 -96h-182l-262 96l-144 190zM387 1548v224h217v-224h-217zM848 1548v224h217v-224h-217z" />
<glyph unicode="&#xdd;" horiz-adv-x="1159" d="M20 1456h201l359 -551l358 551h201l-475 -723v-733h-168v733zM344 1661l397 219l74 -133l-397 -219z" />
<glyph unicode="&#xde;" horiz-adv-x="1243" d="M195 0v1456h170v-250h436l190 -49l152 -151l59 -207l-55 -201l-100 -147l-189 -95h-493v-356h-170zM365 524h444l123 60l59 88l35 121l-35 122l-88 89l-121 34h-417v-514z" />
<glyph unicode="&#xdf;" horiz-adv-x="1228" d="M184 -106v1273l74 170l154 136l192 24l219 -61l119 -136l49 -206l-49 -152l-39 -47l-61 -43l139 -88l98 -129l47 -176l-67 -252l-109 -115l-180 -92h-219v168h176l119 59l59 62l45 170l-28 104l-58 76l-143 88h-170v168h72l114 72l47 51l29 86l-27 119l-59 65l-143 39 l-101 -14l-82 -74l-47 -106v-1239h-170z" />
<glyph unicode="&#xe0;" horiz-adv-x="1157" d="M113 250v119l28 139l152 151l203 52h131l137 -45l49 -35v155l-22 62l-86 55l-101 25h-145l-88 -29l-64 -41l-39 -39l-116 121l57 53l98 64l131 39h191l147 -37l152 -103l55 -139v-620l80 -115l-137 -98l-99 147l-47 -53l-188 -94h-127l-139 43l-99 57zM283 299l63 -90 l47 -29l96 -28h66l154 57l84 88l20 63v76l-43 45l-63 33l-101 29h-92l-135 -37l-80 -80l-16 -72v-55zM352 1425l88 125l367 -260l-88 -125z" />
<glyph unicode="&#xe1;" horiz-adv-x="1157" d="M113 250v119l28 139l152 151l203 52h131l137 -45l49 -35v155l-22 62l-86 55l-101 25h-145l-88 -29l-64 -41l-39 -39l-116 121l57 53l98 64l131 39h191l147 -37l152 -103l55 -139v-620l80 -115l-137 -98l-99 147l-47 -53l-188 -94h-127l-139 43l-99 57zM283 299l63 -90 l47 -29l96 -28h66l154 57l84 88l20 63v76l-43 45l-63 33l-101 29h-92l-135 -37l-80 -80l-16 -72v-55zM352 1290l367 260l88 -125l-367 -260z" />
<glyph unicode="&#xe2;" horiz-adv-x="1157" d="M113 250v119l28 139l152 151l203 52h131l137 -45l49 -35v155l-22 62l-86 55l-101 25h-145l-88 -29l-64 -41l-39 -39l-116 121l57 53l98 64l131 39h191l147 -37l152 -103l55 -139v-620l80 -115l-137 -98l-99 147l-47 -53l-188 -94h-127l-139 43l-99 57zM232 1282l295 238 h106l295 -238l-96 -117l-252 207l-252 -207zM283 299l63 -90l47 -29l96 -28h66l154 57l84 88l20 63v76l-43 45l-63 33l-101 29h-92l-135 -37l-80 -80l-16 -72v-55z" />
<glyph unicode="&#xe3;" horiz-adv-x="1157" d="M113 250v119l28 139l152 151l203 52h131l137 -45l49 -35v155l-22 62l-86 55l-101 25h-145l-88 -29l-64 -41l-39 -39l-116 121l57 53l98 64l131 39h191l147 -37l152 -103l55 -139v-620l80 -115l-137 -98l-99 147l-47 -53l-188 -94h-127l-139 43l-99 57zM185 1284l28 66 l86 77l107 43h100l80 -30l80 -49l47 -17h35l39 15l24 22l21 55l143 -39l-18 -71l-29 -51l-64 -54l-81 -32l-95 -5l-88 31l-108 68h-58l-53 -23l-37 -33l-12 -30zM283 299l63 -90l47 -29l96 -28h66l154 57l84 88l20 63v76l-43 45l-63 33l-101 29h-92l-135 -37l-80 -80 l-16 -72v-55z" />
<glyph unicode="&#xe4;" horiz-adv-x="1157" d="M113 250v119l28 139l152 151l203 52h131l137 -45l49 -35v155l-22 62l-86 55l-101 25h-145l-88 -29l-64 -41l-39 -39l-116 121l57 53l98 64l131 39h191l147 -37l152 -103l55 -139v-620l80 -115l-137 -98l-99 147l-47 -53l-188 -94h-127l-139 43l-99 57zM236 1237v236h225 v-236h-225zM283 299l63 -90l47 -29l96 -28h66l154 57l84 88l20 63v76l-43 45l-63 33l-101 29h-92l-135 -37l-80 -80l-16 -72v-55zM697 1237v236h225v-236h-225z" />
<glyph unicode="&#xe5;" horiz-adv-x="1157" d="M113 250v119l28 139l152 151l203 52h131l137 -45l49 -35v155l-22 62l-86 55l-101 25h-145l-88 -29l-64 -41l-39 -39l-116 121l57 53l98 64l131 39h191l147 -37l152 -103l55 -139v-620l80 -115l-137 -98l-99 147l-47 -53l-188 -94h-127l-139 43l-99 57zM283 299l63 -90 l47 -29l96 -28h66l154 57l84 88l20 63v76l-43 45l-63 33l-101 29h-92l-135 -37l-80 -80l-16 -72v-55zM334 1354v86l28 78l76 86l98 36h84l99 -36l75 -86l29 -78v-86l-29 -78l-75 -88l-99 -35h-84l-98 35l-76 88zM456 1368l13 -35l39 -43l45 -18h51l45 18l39 43l12 35v57 l-12 35l-39 43l-45 17h-51l-45 -17l-39 -43l-13 -35v-57z" />
<glyph unicode="&#xe6;" horiz-adv-x="1814" d="M113 250v119l28 139l152 151l203 52h131l118 -39l39 137l15 20l-8 19l-86 55l-101 25h-145l-88 -29l-64 -41l-39 -39l-116 121l57 53l98 64l131 39h191l147 -37l127 -86l21 24l204 99h183l207 -99l137 -188l47 -137v-215h-791v-21l27 -90l98 -133l125 -61h123l139 34 l107 68l90 -135l-133 -88l-189 -47h-170l-204 98l-64 86l-80 -90l-188 -94h-127l-139 43l-99 57zM283 299l63 -90l47 -29l96 -28h66l154 57l71 76l-39 131v82l-34 16l-101 29h-92l-135 -37l-80 -80l-16 -72v-55zM911 625h621v26l-27 78l-98 133l-125 66h-127l-123 -64 l-96 -131l-25 -90v-18z" />
<glyph unicode="&#xe7;" horiz-adv-x="1050" d="M113 416v243l43 150l139 188l205 99h174l160 -52l135 -135l-121 -112l-103 102l-92 29h-127l-123 -64l-96 -131l-24 -96v-197l26 -94l99 -133l124 -61h121l88 30l107 101l119 -117l-133 -131l-160 -51h-109l-14 -56l102 -16l45 -107l-59 -122l-125 -54h-90l-72 35l51 109 l46 -17h59l35 19l16 47l-158 35l52 149l-158 76l-139 188z" />
<glyph unicode="&#xe8;" horiz-adv-x="1175" d="M113 416v243l43 150l139 188l205 99h182l207 -99l137 -188l47 -137v-215h-790v-21l26 -90l99 -133l124 -61h123l140 34l106 68l90 -135l-133 -88l-188 -47h-170l-205 98l-139 188zM283 625h620v26l-26 78l-99 133l-125 66h-127l-123 -64l-96 -131l-24 -90v-18zM372 1425 l88 125l367 -260l-88 -125z" />
<glyph unicode="&#xe9;" horiz-adv-x="1175" d="M113 416v243l43 150l139 188l205 99h182l207 -99l137 -188l47 -137v-215h-790v-21l26 -90l99 -133l124 -61h123l140 34l106 68l90 -135l-133 -88l-188 -47h-170l-205 98l-139 188zM283 625h620v26l-26 78l-99 133l-125 66h-127l-123 -64l-96 -131l-24 -90v-18zM372 1290 l367 260l88 -125l-367 -260z" />
<glyph unicode="&#xea;" horiz-adv-x="1175" d="M113 416v243l43 150l139 188l205 99h182l207 -99l137 -188l47 -137v-215h-790v-21l26 -90l99 -133l124 -61h123l140 34l106 68l90 -135l-133 -88l-188 -47h-170l-205 98l-139 188zM252 1282l295 238h106l295 -238l-96 -117l-252 207l-252 -207zM283 625h620v26l-26 78 l-99 133l-125 66h-127l-123 -64l-96 -131l-24 -90v-18z" />
<glyph unicode="&#xeb;" horiz-adv-x="1175" d="M113 416v243l43 150l139 188l205 99h182l207 -99l137 -188l47 -137v-215h-790v-21l26 -90l99 -133l124 -61h123l140 34l106 68l90 -135l-133 -88l-188 -47h-170l-205 98l-139 188zM256 1237v236h225v-236h-225zM283 625h620v26l-26 78l-99 133l-125 66h-127l-123 -64 l-96 -131l-24 -90v-18zM717 1237v236h225v-236h-225z" />
<glyph unicode="&#xec;" horiz-adv-x="538" d="M43 1425l88 125l367 -260l-88 -125zM184 0v1079h170v-1079h-170z" />
<glyph unicode="&#xed;" horiz-adv-x="538" d="M43 1290l367 260l88 -125l-367 -260zM184 0v1079h170v-1079h-170z" />
<glyph unicode="&#xee;" horiz-adv-x="538" d="M-78 1282l295 238h106l295 -238l-96 -117l-252 207l-252 -207zM184 0v1079h170v-1079h-170z" />
<glyph unicode="&#xef;" horiz-adv-x="538" d="M-74 1237v236h225v-236h-225zM184 0v1079h170v-1079h-170zM387 1237v236h225v-236h-225z" />
<glyph unicode="&#xf0;" horiz-adv-x="1153" d="M113 354v224l53 131l98 141l193 102h229l74 -43l-164 279l-223 -125l-62 108l221 125l-106 181l147 84l101 -185l215 121l61 -108l-215 -121l258 -467l47 -215v-232l-53 -131l-98 -141l-197 -98h-235l-193 98l-98 141zM283 389l41 -96l55 -78l121 -63h151l123 61l57 84 l39 90v176l-41 109l-69 73l-107 39h-155l-119 -67l-57 -80l-39 -94v-154z" />
<glyph unicode="&#xf1;" horiz-adv-x="1200" d="M184 0v1079h170v-106l52 45l135 78h188l182 -49l125 -168v-879h-170v813l-51 80l-121 35h-131l-147 -94l-62 -89v-745h-170zM205 1284l28 66l86 77l107 43h100l80 -30l80 -49l47 -17h35l39 15l24 22l21 55l143 -39l-18 -71l-29 -51l-64 -54l-81 -32l-95 -5l-88 31 l-108 68h-58l-53 -23l-37 -33l-12 -30z" />
<glyph unicode="&#xf2;" horiz-adv-x="1142" d="M113 418v241l41 185l102 151l207 101h217l207 -101l102 -151l41 -185v-241l-41 -185l-102 -151l-207 -98h-217l-207 98l-102 151zM283 438l26 -137l62 -92l121 -59h159l121 59l62 92l26 137v205l-26 133l-64 90l-119 62h-159l-123 -62l-60 -90l-26 -133v-205zM344 1425 l88 125l367 -260l-88 -125z" />
<glyph unicode="&#xf3;" horiz-adv-x="1142" d="M113 418v241l41 185l102 151l207 101h217l207 -101l102 -151l41 -185v-241l-41 -185l-102 -151l-207 -98h-217l-207 98l-102 151zM283 438l26 -137l62 -92l121 -59h159l121 59l62 92l26 137v205l-26 133l-64 90l-119 62h-159l-123 -62l-60 -90l-26 -133v-205zM344 1290 l367 260l88 -125l-367 -260z" />
<glyph unicode="&#xf4;" horiz-adv-x="1142" d="M113 418v241l41 185l102 151l207 101h217l207 -101l102 -151l41 -185v-241l-41 -185l-102 -151l-207 -98h-217l-207 98l-102 151zM223 1282l295 238h106l295 -238l-96 -117l-252 207l-252 -207zM283 438l26 -137l62 -92l121 -59h159l121 59l62 92l26 137v205l-26 133 l-64 90l-119 62h-159l-123 -62l-60 -90l-26 -133v-205z" />
<glyph unicode="&#xf5;" horiz-adv-x="1142" d="M113 418v241l41 185l102 151l207 101h217l207 -101l102 -151l41 -185v-241l-41 -185l-102 -151l-207 -98h-217l-207 98l-102 151zM177 1284l28 66l86 77l107 43h100l80 -30l80 -49l47 -17h35l39 15l24 22l21 55l143 -39l-18 -71l-29 -51l-64 -54l-81 -32l-95 -5l-88 31 l-108 68h-58l-53 -23l-37 -33l-12 -30zM283 438l26 -137l62 -92l121 -59h159l121 59l62 92l26 137v205l-26 133l-64 90l-119 62h-159l-123 -62l-60 -90l-26 -133v-205z" />
<glyph unicode="&#xf6;" horiz-adv-x="1142" d="M113 418v241l41 185l102 151l207 101h217l207 -101l102 -151l41 -185v-241l-41 -185l-102 -151l-207 -98h-217l-207 98l-102 151zM227 1237v236h225v-236h-225zM283 438l26 -137l62 -92l121 -59h159l121 59l62 92l26 137v205l-26 133l-64 90l-119 62h-159l-123 -62 l-60 -90l-26 -133v-205zM688 1237v236h225v-236h-225z" />
<glyph unicode="&#xf7;" horiz-adv-x="1187" d="M143 614v160h901v-160h-901zM471 227v240h244v-240h-244zM471 922v239h244v-239h-244z" />
<glyph unicode="&#xf8;" horiz-adv-x="1286" d="M184 418v241l41 185l103 151l207 101h217l120 -60l101 164l106 -65l-102 -166l84 -125l41 -185v-241l-41 -185l-103 -151l-206 -98h-217l-125 59l-105 -168l-108 68l106 174l-78 116zM354 438l27 -137l18 -29l385 623l-61 33h-160l-123 -62l-59 -90l-27 -133v-205z M494 182l69 -32h160l121 59l61 92l27 137v205l-27 133l-24 35z" />
<glyph unicode="&#xf9;" d="M164 205v874h170v-813l59 -86l117 -30h117l145 96l64 88v745h170v-1079h-168v109l-54 -48l-135 -77h-166l-186 49zM368 1425l88 125l367 -260l-88 -125z" />
<glyph unicode="&#xfa;" d="M164 205v874h170v-813l59 -86l117 -30h117l145 96l64 88v745h170v-1079h-168v109l-54 -48l-135 -77h-166l-186 49zM368 1290l367 260l88 -125l-367 -260z" />
<glyph unicode="&#xfb;" d="M164 205v874h170v-813l59 -86l117 -30h117l145 96l64 88v745h170v-1079h-168v109l-54 -48l-135 -77h-166l-186 49zM248 1282l295 238h106l295 -238l-96 -117l-252 207l-252 -207z" />
<glyph unicode="&#xfc;" d="M164 205v874h170v-813l59 -86l117 -30h117l145 96l64 88v745h170v-1079h-168v109l-54 -48l-135 -77h-166l-186 49zM252 1237v236h225v-236h-225zM713 1237v236h225v-236h-225z" />
<glyph unicode="&#xfd;" horiz-adv-x="1130" d="M51 1079h193l323 -735l324 735h188l-637 -1411h-182l215 475zM337 1290l367 260l88 -125l-367 -260z" />
<glyph unicode="&#xfe;" horiz-adv-x="1216" d="M184 -332v1788h170v-483l43 45l127 78h185l213 -99l139 -188l43 -145v-244l-43 -150l-139 -188l-205 -98h-182l-123 45l-58 37v-398h-170zM354 281l43 -54l78 -51l84 -26h131l121 65l98 131l25 96v199l-25 92l-98 133l-129 62h-135l-133 -94l-60 -89v-464z" />
<glyph unicode="&#xff;" horiz-adv-x="1130" d="M51 1079h193l323 -735l324 735h188l-637 -1411h-182l215 475zM221 1237v236h225v-236h-225zM682 1237v236h225v-236h-225z" />
<glyph unicode="&#x152;" horiz-adv-x="1806" d="M123 594v268l39 180l90 183l141 137l215 94h205l111 -49v49h800v-168h-630v-430h401v-168h-401v-522h630v-168h-800v49l-111 -49h-205l-219 96l-137 140l-90 182zM293 606l31 -133l69 -137l96 -98l152 -70h143l140 65v992l-140 63h-147l-145 -65l-99 -99l-69 -137 l-31 -139v-242z" />
<glyph unicode="&#x153;" horiz-adv-x="1841" d="M113 418v241l41 185l102 151l207 101h217l207 -101l35 -51l39 53l204 99h183l206 -99l138 -188l47 -137v-215h-791v-21l27 -90l98 -133l125 -61h123l139 34l107 68l90 -135l-133 -88l-189 -47h-170l-204 98l-39 53l-35 -53l-207 -98h-217l-207 98l-102 151zM283 438 l26 -137l62 -92l121 -59h159l121 59l47 70l-41 137v243l41 140l-49 67l-119 62h-159l-123 -62l-60 -90l-26 -133v-205zM948 625h621v26l-27 78l-98 133l-125 66h-127l-123 -64l-96 -131l-25 -90v-18z" />
<glyph unicode="&#x178;" horiz-adv-x="1159" d="M20 1456h201l359 -551l358 551h201l-475 -723v-733h-168v733zM239 1548v224h217v-224h-217zM700 1548v224h217v-224h-217z" />
<glyph unicode="&#x2c6;" horiz-adv-x="1228" d="M82 1282l295 238h106l295 -238l-96 -117l-252 207l-252 -207z" />
<glyph unicode="&#x2dc;" horiz-adv-x="1228" d="M82 1284l28 66l86 77l107 43h100l80 -30l80 -49l47 -17h35l39 15l24 22l21 55l143 -39l-18 -71l-29 -51l-64 -54l-81 -32l-95 -5l-88 31l-108 68h-58l-53 -23l-37 -33l-12 -30z" />
<glyph unicode="&#x2000;" horiz-adv-x="985" />
<glyph unicode="&#x2001;" horiz-adv-x="1970" />
<glyph unicode="&#x2002;" horiz-adv-x="985" />
<glyph unicode="&#x2003;" horiz-adv-x="1970" />
<glyph unicode="&#x2004;" horiz-adv-x="656" />
<glyph unicode="&#x2005;" horiz-adv-x="492" />
<glyph unicode="&#x2006;" horiz-adv-x="328" />
<glyph unicode="&#x2007;" horiz-adv-x="328" />
<glyph unicode="&#x2008;" horiz-adv-x="246" />
<glyph unicode="&#x2009;" horiz-adv-x="394" />
<glyph unicode="&#x200a;" horiz-adv-x="109" />
<glyph unicode="&#x2010;" horiz-adv-x="983" d="M143 553v160h697v-160h-697z" />
<glyph unicode="&#x2011;" horiz-adv-x="983" d="M143 553v160h697v-160h-697z" />
<glyph unicode="&#x2012;" horiz-adv-x="983" d="M143 553v160h697v-160h-697z" />
<glyph unicode="&#x2013;" horiz-adv-x="1310" d="M143 559v148h1024v-148h-1024z" />
<glyph unicode="&#x2014;" horiz-adv-x="2621" d="M143 559v148h2335v-148h-2335z" />
<glyph unicode="&#x2018;" horiz-adv-x="571" d="M164 973v227l172 299l102 -59l-114 -215l84 -33v-219h-244z" />
<glyph unicode="&#x2019;" horiz-adv-x="571" d="M133 989l115 215l-84 33v219h244v-227l-172 -299z" />
<glyph unicode="&#x201a;" horiz-adv-x="571" d="M133 -215l115 215l-84 33v219h244v-227l-172 -299z" />
<glyph unicode="&#x201c;" horiz-adv-x="937" d="M164 973v227l172 299l102 -59l-114 -215l84 -33v-219h-244zM530 973v227l172 299l103 -59l-115 -215l84 -33v-219h-244z" />
<glyph unicode="&#x201d;" horiz-adv-x="937" d="M133 989l115 215l-84 33v219h244v-227l-172 -299zM500 989l115 215l-84 33v219h244v-227l-172 -299z" />
<glyph unicode="&#x201e;" horiz-adv-x="937" d="M133 -215l115 215l-84 33v219h244v-227l-172 -299zM500 -215l115 215l-84 33v219h244v-227l-172 -299z" />
<glyph unicode="&#x2022;" horiz-adv-x="733" d="M184 672v49l13 47l22 39l37 37l39 22l47 13h49l47 -13l39 -22l37 -37l23 -39l12 -47v-49l-12 -47l-23 -39l-37 -37l-39 -23l-47 -12h-49l-47 12l-39 23l-37 37l-22 39z" />
<glyph unicode="&#x2026;" horiz-adv-x="1878" d="M164 0v252h244v-252h-244zM817 0v252h244v-252h-244zM1470 0v252h244v-252h-244z" />
<glyph unicode="&#x202f;" horiz-adv-x="394" />
<glyph unicode="&#x2039;" horiz-adv-x="665" d="M92 584v106l299 406l131 -107l-260 -352l260 -352l-131 -107z" />
<glyph unicode="&#x203a;" horiz-adv-x="665" d="M143 285l260 352l-260 352l131 107l299 -406v-106l-299 -406z" />
<glyph unicode="&#x205f;" horiz-adv-x="492" />
<glyph unicode="&#x20ac;" horiz-adv-x="1310" d="M143 520v139h146v140h-146v139h158l25 125l73 176l140 145l178 89h198l179 -87l118 -143l-127 -102l-94 110l-112 54h-127l-117 -60l-92 -98l-58 -141l-12 -68h428v-139h-442v-140h442v-139h-428l12 -69l58 -142l90 -98l115 -59h137l104 36l101 76l100 -129l-123 -94 l-158 -57h-196l-176 88l-138 145l-73 176l-25 127h-158z" />
<glyph unicode="&#x2122;" horiz-adv-x="1724" d="M55 1307v149h563v-149h-206v-729h-150v729h-207zM768 578v878h150l239 -622l240 622h149v-878h-145v512l-191 -490h-106l-191 490v-512h-145z" />
<glyph unicode="&#x25fc;" horiz-adv-x="1075" d="M0 0v1075h1075v-1075h-1075z" />
<glyph unicode="&#xfb01;" horiz-adv-x="1351" d="M51 885v168h195v286l112 168l172 54h82l183 -41l-43 -166l-152 39h-55l-78 -27l-51 -76v-237h751v-1053h-170v885h-581v-885h-170v885h-195zM961 1292v252h243v-252h-243z" />
<glyph unicode="&#xfb02;" horiz-adv-x="1351" d="M51 885v168h195v286l112 168l172 54h82l183 -41l-43 -166l-152 39h-55l-78 -27l-51 -76v-237h581v491h170v-1544h-170v885h-581v-885h-170v885h-195z" />
<glyph unicode="&#xfb03;" horiz-adv-x="2103" d="M51 885v168h195v286l112 168l172 54h82l156 -15l-14 -168l-154 15h-55l-78 -27l-51 -76v-237h581v286l113 168l172 54h82l182 -41l-43 -166l-151 39h-56l-77 -27l-52 -76v-237h752v-1053h-170v885h-582v-885h-170v885h-581v-885h-170v885h-195zM1712 1292v252h244v-252 h-244z" />
<glyph unicode="&#xfb04;" horiz-adv-x="2103" d="M51 885v168h195v286l112 168l172 54h82l156 -15l-14 -168l-154 15h-55l-78 -27l-51 -76v-237h581v286l113 168l172 54h82l182 -41l-43 -166l-151 39h-56l-77 -27l-52 -76v-237h582v491h170v-1544h-170v885h-582v-885h-170v885h-581v-885h-170v885h-195z" />
</font>
</defs>
</svg>
